<?xml version="1.0" encoding="UTF-8"?>
<svg width="79px" height="79px" viewBox="0 0 79 79" version="1.1" xmlns="http://www.w3.org/2000/svg" xmlns:xlink="http://www.w3.org/1999/xlink">
    <!-- Generator: Sketch 42 (36781) - http://www.bohemiancoding.com/sketch -->
    <title>arrow_down</title>
    <desc>Created with Sketch.</desc>
    <defs></defs>
    <g id="Symbols" stroke="none" stroke-width="1" fill="none" fill-rule="evenodd">
        <g id="arrow_down">
            <g id="Notes-/-Callout-Copy" fill="#50E3BC">
                <circle id="Background" cx="39.5" cy="39.5" r="39.5"></circle>
            </g>
            <g id="arrow-down-c" transform="translate(30.000000, 27.000000)" fill="#FFFFFF">
                <g id="Layer_1" fill-rule="nonzero">
                    <path d="M19.3138686,17.8759207 L11.649635,25.2634561 C11.2262774,25.7053824 10.649635,25.9263456 10.0145985,25.9263456 C9.37956204,25.9263456 8.81021898,25.7053824 8.37956204,25.2634561 L0.686131387,17.8759207 C-0.226277372,16.9994334 -0.226277372,15.5705382 0.686131387,14.694051 C1.59854015,13.8175637 3.0729927,13.8175637 3.98540146,14.694051 L7.66423358,18.2441926 L7.66423358,2.2611898 C7.66423358,1.01643059 8.7080292,0.00736543909 10,0.00736543909 C11.2919708,0.00736543909 12.3357664,1.01643059 12.3357664,2.2611898 L12.3357664,18.2441926 L16.0145985,14.694051 C16.9270073,13.8175637 18.4014599,13.8175637 19.3138686,14.694051 C20.2262774,15.5705382 20.2262774,16.992068 19.3138686,17.8759207 Z" id="Shape"></path>
                </g>
            </g>
        </g>
    </g>
</svg>