<?xml version="1.0" encoding="utf-8"?>
<!-- Generator: Adobe Illustrator 19.2.1, SVG Export Plug-In . SVG Version: 6.00 Build 0)  -->
<svg version="1.1" id="Layer_1" xmlns="http://www.w3.org/2000/svg" xmlns:xlink="http://www.w3.org/1999/xlink" x="0px" y="0px"
	 viewBox="0 0 100 100" style="enable-background:new 0 0 100 100;" xml:space="preserve">
<style type="text/css">
	.st0{fill:#FFFFFF;}
</style>
<path class="st0" d="M100,53v-6H53.5V43h45.9c0,0-3.7-37.6-42-42.5v34.6H89c0,0-5.3-14.5-13.3-17.8v12H63.5V8.6
	c0,0,22.2,3.2,29.3,29.3l-39.4-0.2V0h-6v37.6L8.1,37.4c0,0,5.3-23.3,29.8-29.8l-0.3,21.8h-12V17.1c0,0-10,5-14,18.2H43V0.7
	C43,0.7,5.7,6.2,0.6,43h46.9V47H0v6h47.5v4.5H0.6c5.2,36.8,42.5,42.3,42.5,42.3V65.4H11.6c4,13.2,14,18.2,14,18.2V71.2h12L38,93
	C13.5,86.5,8.1,63.2,8.1,63.2L47.5,63v37h6v-37L93,62.7C85.8,88.8,63.6,92,63.6,92V71.2h12.2v12c8-3.3,13.3-17.8,13.3-17.8H57.5V100
	c38.3-4.8,42-42.5,42-42.5h-46V53H100z"/>
</svg>
